<svg xmlns="http://www.w3.org/2000/svg" xmlns:xlink="http://www.w3.org/1999/xlink" width="24" height="24" viewBox="0 0 24 24" fill="none"><g opacity="1"  transform="translate(0 0)  rotate(0)"><mask id="bg-mask-0" fill="white"><use transform="translate(0 0)  rotate(0)" xlink:href="#path_0"></use></mask><g mask="url(#bg-mask-0)" ><path d="M1 22L23 22L23 0L1 0L1 22Z"  ></path><g opacity="1"  transform="translate(0 0)  rotate(0)"><mask id="bg-mask-1" fill="white"><use transform="translate(0 0)  rotate(0)" xlink:href="#path_1"></use></mask><g mask="url(#bg-mask-1)" ><g opacity="1"  transform="translate(0 0)  rotate(0)"><path  id="路径" style="fill:#718096; opacity:1;" d="M18.6499 2.57996L14.6099 2.57996Q13.728 2.57996 13.429 2.87904Q13.1299 3.17812 13.1299 4.05996L13.1299 8.09996Q13.1299 8.9818 13.429 9.28088Q13.728 9.57996 14.6099 9.57996L18.6499 9.57996Q19.5317 9.57996 19.8308 9.28088Q20.1299 8.9818 20.1299 8.09996L20.1299 4.05996Q20.1299 3.17812 19.8308 2.87904Q19.5317 2.57996 18.6499 2.57996L18.6499 2.57996ZM18.6499 1.07996Q20.153 1.07996 20.8915 1.81838Q21.6299 2.5568 21.6299 4.05996L21.6299 8.09996Q21.6299 11.08 18.6499 11.08L14.6099 11.08Q11.6299 11.08 11.6299 8.09996L11.6299 4.05996Q11.6299 2.5568 12.3683 1.81838Q13.1067 1.07996 14.6099 1.07996L18.6499 1.07996L18.6499 1.07996Z"></path><path  id="路径" style="fill:#718096; opacity:1;" d="M8.10008 2.57996L4.06008 2.57996Q3.15302 2.57996 2.84698 2.85187Q2.58008 3.08901 2.58008 3.80996L2.58008 8.33996Q2.58008 9.06558 2.84589 9.30082Q3.14999 9.56996 4.06008 9.56996L8.10008 9.56996Q9.00937 9.57566 9.31427 9.30582Q9.58008 9.07058 9.58008 8.34996L9.58008 3.80996Q9.58008 3.08901 9.31318 2.85187Q9.00714 2.57996 8.10008 2.57996L8.10008 2.57996ZM8.10008 1.07996Q11.0801 1.07996 11.0801 3.80996L11.0801 8.34996Q11.0801 9.74613 10.3084 10.4291Q9.57377 11.0792 8.10008 11.07L4.06008 11.07Q2.58155 11.07 1.85177 10.4241Q1.08008 9.74113 1.08008 8.33996L1.08008 3.80996Q1.08008 2.41522 1.85068 1.73054Q2.5829 1.07996 4.06008 1.07996L8.10008 1.07996L8.10008 1.07996Z"></path><path  id="路径" style="fill:#718096; opacity:1;" d="M8.10008 13.13L4.06008 13.13Q3.17824 13.13 2.87916 13.4291Q2.58008 13.7282 2.58008 14.61L2.58008 18.65Q2.58008 19.5318 2.87916 19.8309Q3.17824 20.13 4.06008 20.13L8.10008 20.13Q8.98192 20.13 9.281 19.8309Q9.58008 19.5318 9.58008 18.65L9.58008 14.61Q9.58008 13.7282 9.281 13.4291Q8.98192 13.13 8.10008 13.13ZM8.10008 11.63Q9.60324 11.63 10.3417 12.3684Q11.0801 13.1068 11.0801 14.61L11.0801 18.65Q11.0801 21.63 8.10008 21.63L4.06008 21.63Q1.08008 21.63 1.08008 18.65L1.08008 14.61Q1.08008 13.1068 1.8185 12.3684Q2.55692 11.63 4.06008 11.63L8.10008 11.63Z"></path><path  id="Vector" style="fill:#718096; opacity:1;" d="M12.5402 16.0264C12.5326 16.4406 12.8623 16.7824 13.2764 16.7899L18.7764 16.8899C19.1906 16.8974 19.5324 16.5678 19.5399 16.1536C19.5474 15.7395 19.2178 15.3977 18.8037 15.3901L13.3037 15.2902C12.8895 15.2826 12.5477 15.6123 12.5402 16.0264Z"></path><path  id="Vector" style="fill:#718096; opacity:1;" d="M16.0264 12.5402C15.6123 12.5477 15.2826 12.8895 15.2902 13.3037L15.39 18.8037C15.3975 19.2178 15.7394 19.5474 16.1535 19.5399C16.5677 19.5324 16.8973 19.1906 16.8898 18.7764L16.7899 13.2764C16.7824 12.8623 16.4406 12.5326 16.0264 12.5402Z"></path><path d="M24 24L24 0L0 0L0 24L24 24Z"  ></path></g></g></g></g></g><defs><rect id="path_0" x="0" y="0" width="24" height="24" rx="0" ry="0"/><rect id="path_1" x="0" y="0" width="24" height="24" rx="0" ry="0"/></defs></svg>